<svg width="34" height="34" viewBox="0 0 34 34" fill="none" xmlns="http://www.w3.org/2000/svg">
<g filter="url(#filter0_i_53802_8)">
<path d="M1 4C1 2.34315 2.34315 1 4 1H30C31.6569 1 33 2.34315 33 4V30C33 31.6569 31.6569 33 30 33H4C2.34315 33 1 31.6569 1 30V4Z" fill="#B1B0B4"/>
<path d="M4 4H30V30H4V4Z" fill="#322E39"/>
<path d="M9 8C8.3838 8.16446 8.13521 8.35439 8 9V23C8 23 9 26 12 26H22.5C24.5 26 25.6667 24 26 23V9C25.938 8.41657 25.7372 8.1876 25 8H20C19.4119 8.04521 19.2218 8.30453 19 9V11H23V22C22.4417 22.6866 21.9764 22.8691 21 23H13C12.1739 22.9152 11.7401 22.6754 11 22V11H15V9C14.8626 8.48131 14.7231 8.22227 14 8H9Z" fill="white"/>
</g>
<path d="M4 4V3.5H3.5V4H4ZM30 4H30.5V3.5H30V4ZM30 30V30.5H30.5V30H30ZM4 30H3.5V30.5H4V30ZM8 9L7.51062 8.89751L7.5 8.94821V9H8ZM9 8V7.5H8.93442L8.87107 7.51691L9 8ZM14 8L14.1469 7.52207L14.0751 7.5H14V8ZM15 9H15.5V8.93488L15.4833 8.87193L15 9ZM15 11V11.5H15.5V11H15ZM11 11V10.5H10.5V11H11ZM11 22H10.5V22.2206L10.663 22.3693L11 22ZM13 23L12.949 23.4974L12.9744 23.5H13V23ZM21 23V23.5H21.0334L21.0665 23.4956L21 23ZM23 22L23.3879 22.3154L23.5 22.1776V22H23ZM23 11H23.5V10.5H23V11ZM19 11H18.5V11.5H19V11ZM19 9L18.5236 8.84809L18.5 8.92221V9H19ZM20 8V7.5H19.9808L19.9617 7.50147L20 8ZM25 8L25.1233 7.51544L25.0626 7.5H25V8ZM26 9H26.5V8.9735L26.4972 8.94714L26 9ZM26 23L26.4743 23.1581L26.5 23.0811V23H26ZM8 23H7.5V23.0811L7.52566 23.1581L8 23ZM4 1.5H30V0.5H4V1.5ZM32.5 4V30H33.5V4H32.5ZM30 32.5H4V33.5H30V32.5ZM1.5 30V4H0.5V30H1.5ZM4 32.5C2.61929 32.5 1.5 31.3807 1.5 30H0.5C0.5 31.933 2.067 33.5 4 33.5V32.5ZM32.5 30C32.5 31.3807 31.3807 32.5 30 32.5V33.5C31.933 33.5 33.5 31.933 33.5 30H32.5ZM30 1.5C31.3807 1.5 32.5 2.61929 32.5 4H33.5C33.5 2.067 31.933 0.5 30 0.5V1.5ZM4 0.5C2.067 0.5 0.5 2.067 0.5 4H1.5C1.5 2.61929 2.61929 1.5 4 1.5V0.5ZM4 4.5H30V3.5H4V4.5ZM29.5 4V30H30.5V4H29.5ZM30 29.5H4V30.5H30V29.5ZM4.5 30V4H3.5V30H4.5ZM8.48938 9.10249C8.5475 8.82496 8.61349 8.7302 8.66458 8.68152C8.72506 8.62387 8.83702 8.561 9.12893 8.48309L8.87107 7.51691C8.54678 7.60346 8.22634 7.71778 7.97468 7.95761C7.71361 8.20641 7.5877 8.52943 7.51062 8.89751L8.48938 9.10249ZM13.8531 8.47793C14.1791 8.57816 14.2946 8.66432 14.3489 8.72436C14.4047 8.78602 14.4502 8.87717 14.5167 9.12806L15.4833 8.87193C15.4124 8.60414 15.3194 8.30642 15.0903 8.05332C14.8598 7.7986 14.5439 7.64411 14.1469 7.52207L13.8531 8.47793ZM14.5 9V11H15.5V9H14.5ZM15 10.5H11V11.5H15V10.5ZM10.5 11V22H11.5V11H10.5ZM10.663 22.3693C11.0431 22.7163 11.3761 22.9812 11.7408 23.167C12.1145 23.3574 12.4932 23.4506 12.949 23.4974L13.051 22.5026C12.6807 22.4646 12.4295 22.3956 12.1947 22.276C11.951 22.1518 11.697 21.9591 11.337 21.6307L10.663 22.3693ZM13 23.5H21V22.5H13V23.5ZM21.0665 23.4956C21.5669 23.4284 21.9915 23.3422 22.373 23.1592C22.7661 22.9706 23.0772 22.6976 23.3879 22.3154L22.6121 21.6846C22.3646 21.9889 22.1638 22.1505 21.9406 22.2575C21.7057 22.3702 21.4094 22.4406 20.9335 22.5044L21.0665 23.4956ZM23.5 22V11H22.5V22H23.5ZM23 10.5H19V11.5H23V10.5ZM19.5 11V9H18.5V11H19.5ZM19.4764 9.15191C19.5869 8.80523 19.6628 8.66649 19.726 8.59958C19.7602 8.56342 19.8178 8.51548 20.0383 8.49853L19.9617 7.50147C19.5941 7.52973 19.2626 7.63405 18.9993 7.91272C18.7649 8.16065 18.6349 8.4993 18.5236 8.84809L19.4764 9.15191ZM20 8.5H25V7.5H20V8.5ZM24.8767 8.48456C25.2269 8.57369 25.3464 8.65074 25.3956 8.70099C25.4292 8.73548 25.4763 8.80328 25.5028 9.05286L26.4972 8.94714C26.4617 8.61329 26.3773 8.27489 26.1108 8.00214C25.8597 7.74515 25.5102 7.61391 25.1233 7.51544L24.8767 8.48456ZM25.5 9V23H26.5V9H25.5ZM25.5257 22.8419C25.3778 23.2853 25.0361 23.9696 24.5095 24.5338C23.9865 25.0941 23.3182 25.5 22.5 25.5V26.5C23.6818 26.5 24.5968 25.9059 25.2405 25.2162C25.8805 24.5304 26.2888 23.7147 26.4743 23.1581L25.5257 22.8419ZM22.5 25.5H12V26.5H22.5V25.5ZM12 25.5C10.6905 25.5 9.81988 24.8528 9.25911 24.1799C8.97718 23.8416 8.77839 23.5012 8.65034 23.2451C8.5866 23.1177 8.54116 23.0126 8.5123 22.9413C8.49789 22.9057 8.48766 22.8786 8.4814 22.8616C8.47827 22.853 8.47614 22.847 8.47497 22.8437C8.47438 22.842 8.47404 22.841 8.47394 22.8407C8.47389 22.8405 8.4739 22.8406 8.47396 22.8408C8.474 22.8409 8.47404 22.841 8.47411 22.8412C8.47414 22.8413 8.4742 22.8415 8.47421 22.8415C8.47428 22.8417 8.47434 22.8419 8 23C7.52566 23.1581 7.52573 23.1583 7.52581 23.1586C7.52584 23.1587 7.52592 23.1589 7.52598 23.1591C7.52611 23.1595 7.52625 23.1599 7.5264 23.1603C7.52672 23.1613 7.52709 23.1624 7.52753 23.1637C7.52841 23.1662 7.52955 23.1695 7.53095 23.1736C7.53375 23.1816 7.5376 23.1924 7.54252 23.2058C7.55238 23.2327 7.56656 23.2701 7.58535 23.3165C7.6229 23.4093 7.67903 23.5386 7.75591 23.6924C7.90911 23.9988 8.14782 24.4084 8.49089 24.8201C9.18012 25.6472 10.3095 26.5 12 26.5V25.5ZM8.5 23V9H7.5V23H8.5ZM9 8.5H14V7.5H9V8.5Z" fill="black"/>
<defs>
<filter id="filter0_i_53802_8" x="0.5" y="0.5" width="33" height="34" filterUnits="userSpaceOnUse" color-interpolation-filters="sRGB">
<feFlood flood-opacity="0" result="BackgroundImageFix"/>
<feBlend mode="normal" in="SourceGraphic" in2="BackgroundImageFix" result="shape"/>
<feColorMatrix in="SourceAlpha" type="matrix" values="0 0 0 0 0 0 0 0 0 0 0 0 0 0 0 0 0 0 127 0" result="hardAlpha"/>
<feOffset dy="1"/>
<feGaussianBlur stdDeviation="2"/>
<feComposite in2="hardAlpha" operator="arithmetic" k2="-1" k3="1"/>
<feColorMatrix type="matrix" values="0 0 0 0 0 0 0 0 0 0 0 0 0 0 0 0 0 0 0.25 0"/>
<feBlend mode="normal" in2="shape" result="effect1_innerShadow_53802_8"/>
</filter>
</defs>
</svg>
