<svg width="95" height="27" viewBox="0 0 95 27" fill="none" xmlns="http://www.w3.org/2000/svg">
<path d="M94.4723 23.886C94.4723 25.3249 93.2629 26.4904 91.767 26.4904H3.23661C1.74146 26.4904 0.527832 25.3249 0.527832 23.886V3.11705C0.527832 1.67886 1.74146 0.509277 3.23661 0.509277H91.7663C93.2629 0.509277 94.4716 1.67886 94.4716 3.11705L94.4723 23.886Z" fill="black"/>
<path d="M91.4815 0.540844C93.1106 0.540844 94.4362 1.81238 94.4362 3.375V23.625C94.4362 25.1876 93.1106 26.4592 91.4815 26.4592H3.51852C1.88944 26.4592 0.563842 25.1876 0.563842 23.625V3.375C0.563842 1.81238 1.88944 0.540844 3.51852 0.540844H91.4815ZM91.4815 1.42693e-06H3.51852C1.58421 1.42693e-06 0 1.5196 0 3.375V23.625C0 25.4804 1.58421 27 3.51852 27H91.4815C93.4158 27 95 25.4804 95 23.625V3.375C95 1.5196 93.4158 1.42693e-06 91.4815 1.42693e-06Z" fill="#A6A6A6"/>
<path d="M21.2012 13.3535C21.1808 11.178 23.0583 10.1196 23.1441 10.0703C22.0808 8.5833 20.4327 8.38012 19.8536 8.36392C18.4694 8.2242 17.1267 9.1584 16.4216 9.1584C15.7024 9.1584 14.6166 8.37742 13.4464 8.40037C11.9404 8.42265 10.5316 9.25897 9.75896 10.5577C8.16437 13.2057 9.35363 17.0971 10.8814 19.2375C11.6456 20.2858 12.5386 21.4562 13.7074 21.415C14.851 21.3698 15.2781 20.7157 16.6581 20.7157C18.0254 20.7157 18.4265 21.415 19.6186 21.3887C20.8458 21.3698 21.6185 20.3357 22.356 19.278C23.2391 18.0765 23.5938 16.8932 23.6079 16.8325C23.579 16.823 21.2244 15.961 21.2012 13.3535Z" fill="white"/>
<path d="M18.9493 6.95588C19.5644 6.2181 19.9852 5.21438 19.8684 4.1958C18.9782 4.2336 17.8649 4.78643 17.2239 5.508C16.6567 6.14385 16.15 7.18605 16.2809 8.16615C17.2809 8.2377 18.3076 7.68218 18.9493 6.95588Z" fill="white"/>
<path d="M37.7501 21.2656H36.152L35.2766 18.627H32.2338L31.3999 21.2656H29.844L32.8587 12.2827H34.7207L37.7501 21.2656ZM35.0127 17.52L34.221 15.1744C34.1373 14.9348 33.9804 14.3705 33.7488 13.4822H33.7207C33.6285 13.8642 33.48 14.4285 33.276 15.1744L32.4984 17.52H35.0127V17.52Z" fill="white"/>
<path d="M45.5029 17.9472C45.5029 19.0488 45.1926 19.9196 44.5719 20.5588C44.016 21.1278 43.3257 21.412 42.5016 21.412C41.6121 21.412 40.9732 21.1056 40.584 20.4927H40.5559V23.9048H39.0556V16.9206C39.0556 16.228 39.0366 15.5172 39 14.7882H40.3194L40.4032 15.8149H40.4313C40.9317 15.0414 41.691 14.6553 42.7099 14.6553C43.5065 14.6553 44.1715 14.957 44.7035 15.5611C45.2369 16.1659 45.5029 16.9611 45.5029 17.9472ZM43.9745 17.9999C43.9745 17.3694 43.8267 16.8497 43.5297 16.4406C43.2053 16.014 42.7697 15.8007 42.2237 15.8007C41.8535 15.8007 41.5171 15.9195 41.2167 16.1538C40.9155 16.39 40.7184 16.6985 40.6263 17.0805C40.5798 17.2587 40.5566 17.4045 40.5566 17.5193V18.5993C40.5566 19.0704 40.7072 19.468 41.0084 19.7927C41.3096 20.1174 41.7008 20.2794 42.1821 20.2794C42.7472 20.2794 43.187 20.0701 43.5016 19.653C43.8169 19.2351 43.9745 18.6843 43.9745 17.9999Z" fill="white"/>
<path d="M53.2697 17.9472C53.2697 19.0488 52.9593 19.9196 52.338 20.5588C51.7828 21.1278 51.0924 21.412 50.2684 21.412C49.3789 21.412 48.7399 21.1056 48.3515 20.4927H48.3233V23.9048H46.8231V16.9206C46.8231 16.228 46.804 15.5172 46.7675 14.7882H48.0869L48.1706 15.8149H48.1988C48.6984 15.0414 49.4577 14.6553 50.4774 14.6553C51.2733 14.6553 51.9383 14.957 52.4717 15.5611C53.003 16.1659 53.2697 16.9611 53.2697 17.9472ZM51.7412 17.9999C51.7412 17.3694 51.5928 16.8497 51.2958 16.4406C50.9714 16.014 50.5372 15.8007 49.9904 15.8007C49.6196 15.8007 49.2839 15.9195 48.9827 16.1538C48.6815 16.39 48.4852 16.6985 48.393 17.0805C48.3473 17.2587 48.3233 17.4045 48.3233 17.5193V18.5993C48.3233 19.0704 48.4739 19.468 48.7737 19.7927C49.0749 20.1167 49.4662 20.2794 49.9489 20.2794C50.514 20.2794 50.9538 20.0701 51.2683 19.653C51.5836 19.2351 51.7412 18.6843 51.7412 17.9999Z" fill="white"/>
<path d="M61.9533 18.7463C61.9533 19.5104 61.6768 20.1321 61.1216 20.612C60.5114 21.1365 59.6621 21.3984 58.5706 21.3984C57.5629 21.3984 56.7551 21.2121 56.1436 20.8388L56.4912 19.6393C57.1499 20.0214 57.8726 20.2131 58.66 20.2131C59.2251 20.2131 59.6649 20.0902 59.9809 19.8459C60.2954 19.6015 60.4523 19.2735 60.4523 18.8644C60.4523 18.4999 60.3229 18.1928 60.0632 17.9437C59.8049 17.6947 59.3736 17.4631 58.7712 17.2492C57.1316 16.6626 56.3124 15.8033 56.3124 14.6734C56.3124 13.9349 56.5996 13.3294 57.1745 12.8583C57.7473 12.3865 58.5115 12.1509 59.4671 12.1509C60.3193 12.1509 61.0273 12.2933 61.5923 12.5775L61.2173 13.7506C60.6895 13.4752 60.0927 13.3375 59.4249 13.3375C58.8971 13.3375 58.4848 13.4624 58.1892 13.7108C57.9394 13.9329 57.8141 14.2036 57.8141 14.5242C57.8141 14.8792 57.957 15.1729 58.2441 15.4037C58.4939 15.617 58.9478 15.8479 59.6065 16.0969C60.4122 16.4081 61.004 16.7719 61.3847 17.1891C61.764 17.6049 61.9533 18.1253 61.9533 18.7463Z" fill="white"/>
<path d="M66.9137 15.8678H65.26V19.0126C65.26 19.8125 65.5513 20.2121 66.1354 20.2121C66.4035 20.2121 66.6259 20.1898 66.8018 20.1452L66.8433 21.2381C66.5478 21.344 66.1586 21.3974 65.6766 21.3974C65.0841 21.3974 64.621 21.2239 64.2868 20.8776C63.9539 20.5307 63.7865 19.9488 63.7865 19.1314V15.8664H62.8013V14.7864H63.7865V13.6004L65.26 13.1738V14.7864H66.9137V15.8678Z" fill="white"/>
<path d="M74.3751 17.9734C74.3751 18.969 74.0781 19.7864 73.4856 20.4257C72.8642 21.0838 72.0395 21.4118 71.0114 21.4118C70.0206 21.4118 69.2317 21.0966 68.6434 20.4662C68.0551 19.8357 67.761 19.0399 67.761 18.0807C67.761 17.077 68.0636 16.2548 68.6709 15.6156C69.2768 14.9757 70.0945 14.6558 71.1226 14.6558C72.1134 14.6558 72.9107 14.971 73.5124 15.6021C74.088 16.2143 74.3751 17.0048 74.3751 17.9734ZM72.8185 18.02C72.8185 17.4226 72.6855 16.9103 72.416 16.483C72.1014 15.9659 71.6518 15.7081 71.0691 15.7081C70.466 15.7081 70.0079 15.9666 69.6934 16.483C69.4238 16.9109 69.2908 17.4314 69.2908 18.047C69.2908 18.6443 69.4238 19.1567 69.6934 19.5833C70.0178 20.1003 70.4709 20.3582 71.0557 20.3582C71.6285 20.3582 72.0782 20.0949 72.4026 19.5698C72.6792 19.1344 72.8185 18.6167 72.8185 18.02Z" fill="white"/>
<path d="M79.2517 16.0539C79.1033 16.0275 78.9449 16.014 78.7789 16.014C78.2511 16.014 77.8429 16.2051 77.5558 16.5878C77.306 16.9253 77.1807 17.3519 77.1807 17.8669V21.2655H75.6811L75.6952 16.8281C75.6952 16.0815 75.6762 15.4018 75.6389 14.7889H76.9457L77.0006 16.0282H77.0421C77.2004 15.6023 77.4503 15.2594 77.7923 15.0022C78.1265 14.7707 78.4875 14.6553 78.8767 14.6553C79.0153 14.6553 79.1406 14.6647 79.2517 14.6816V16.0539Z" fill="white"/>
<path d="M85.9616 17.7204C85.9616 17.9782 85.944 18.1956 85.9067 18.3731H81.4059C81.4234 19.013 81.6409 19.5024 82.0589 19.8399C82.4382 20.1416 82.9287 20.2928 83.531 20.2928C84.1974 20.2928 84.8054 20.1909 85.3522 19.9864L85.5873 20.9854C84.9483 21.2527 84.1939 21.3856 83.3234 21.3856C82.2763 21.3856 81.4544 21.09 80.8563 20.4994C80.2595 19.9087 79.9604 19.1156 79.9604 18.1207C79.9604 17.1439 80.2384 16.3306 80.795 15.6819C81.3777 14.9893 82.1652 14.6431 83.156 14.6431C84.1292 14.6431 84.866 14.9893 85.3663 15.6819C85.7625 16.232 85.9616 16.9124 85.9616 17.7204ZM84.531 17.3471C84.5409 16.9205 84.443 16.552 84.2397 16.2408C83.98 15.8405 83.581 15.6407 83.0441 15.6407C82.5536 15.6407 82.1546 15.8358 81.8499 16.2273C81.6001 16.5385 81.4516 16.9117 81.4059 17.3464H84.531V17.3471Z" fill="white"/>
<path d="M34.5167 6.7571C34.5167 7.55157 34.2683 8.14962 33.7722 8.55125C33.3127 8.92182 32.6596 9.10745 31.8138 9.10745C31.3944 9.10745 31.0355 9.0899 30.735 9.0548V4.71387C31.1269 4.65312 31.5492 4.62207 32.0052 4.62207C32.8109 4.62207 33.4182 4.79015 33.8278 5.1263C34.2866 5.50632 34.5167 6.0497 34.5167 6.7571ZM33.7391 6.77667C33.7391 6.26165 33.597 5.86677 33.3127 5.59137C33.0284 5.31665 32.6132 5.17895 32.0664 5.17895C31.8342 5.17895 31.6364 5.1938 31.4725 5.22485V8.52492C31.5632 8.53842 31.7293 8.5445 31.9707 8.5445C32.5351 8.5445 32.9707 8.39397 33.2775 8.09292C33.5843 7.79187 33.7391 7.35312 33.7391 6.77667Z" fill="white"/>
<path d="M38.6396 7.45074C38.6396 7.94011 38.494 8.34106 38.2026 8.65561C37.8972 8.97894 37.4926 9.14026 36.9873 9.14026C36.5004 9.14026 36.1126 8.98569 35.8234 8.67519C35.5349 8.36536 35.3906 7.97454 35.3906 7.50339C35.3906 7.01064 35.5391 6.60631 35.8375 6.29244C36.1358 5.97856 36.537 5.82129 37.0422 5.82129C37.5292 5.82129 37.9204 5.97586 38.2167 6.28569C38.4982 6.58674 38.6396 6.97554 38.6396 7.45074ZM37.8747 7.47369C37.8747 7.18006 37.8086 6.92829 37.677 6.71836C37.5221 6.46456 37.3019 6.33766 37.0155 6.33766C36.7192 6.33766 36.494 6.46456 36.3392 6.71836C36.2069 6.92829 36.1415 7.18411 36.1415 7.48651C36.1415 7.78014 36.2076 8.03191 36.3392 8.24184C36.499 8.49564 36.7213 8.62254 37.0084 8.62254C37.2899 8.62254 37.5109 8.49361 37.6699 8.23509C37.8064 8.02111 37.8747 7.76731 37.8747 7.47369Z" fill="white"/>
<path d="M44.168 5.88672L43.13 9.06867H42.4545L42.0245 7.68694C41.9154 7.34202 41.8268 6.99912 41.7578 6.65892H41.7444C41.6804 7.00857 41.5917 7.35079 41.4777 7.68694L41.021 9.06867H40.3377L39.3617 5.88672H40.1196L40.4947 7.39939C40.5854 7.75714 40.66 8.09802 40.7198 8.42067H40.7332C40.7881 8.15472 40.8789 7.81587 41.007 7.40614L41.4777 5.88739H42.0787L42.5298 7.37374C42.6388 7.73622 42.7275 8.08519 42.7958 8.42134H42.8162C42.8661 8.09397 42.9414 7.74499 43.0414 7.37374L43.4439 5.88739H44.168V5.88672Z" fill="white"/>
<path d="M47.9912 9.06811H47.2537V7.24561C47.2537 6.68401 47.0313 6.40321 46.5852 6.40321C46.3663 6.40321 46.1897 6.48016 46.0525 6.63474C45.9167 6.78931 45.8477 6.97156 45.8477 7.18014V9.06744H45.1102V6.79539C45.1102 6.51594 45.1011 6.21286 45.0835 5.88481H45.7316L45.7661 6.38229H45.7865C45.8723 6.22771 46.0004 6.10014 46.1686 5.99821C46.3685 5.87941 46.5922 5.81934 46.8371 5.81934C47.1467 5.81934 47.4043 5.91519 47.6091 6.10756C47.8638 6.34314 47.9912 6.69481 47.9912 7.16191V9.06811V9.06811Z" fill="white"/>
<path d="M50.0249 9.06824H49.2881V4.42627H50.0249V9.06824Z" fill="white"/>
<path d="M54.3667 7.45074C54.3667 7.94011 54.221 8.34106 53.9297 8.65561C53.6243 8.97894 53.2189 9.14026 52.7144 9.14026C52.2267 9.14026 51.839 8.98569 51.5505 8.67519C51.2619 8.36536 51.1177 7.97454 51.1177 7.50339C51.1177 7.01064 51.2662 6.60631 51.5645 6.29244C51.8629 5.97856 52.264 5.82129 52.7686 5.82129C53.2562 5.82129 53.6468 5.97586 53.9437 6.28569C54.2252 6.58674 54.3667 6.97554 54.3667 7.45074ZM53.601 7.47369C53.601 7.18006 53.5349 6.92829 53.4033 6.71836C53.2492 6.46456 53.0282 6.33766 52.7425 6.33766C52.4456 6.33766 52.2204 6.46456 52.0663 6.71836C51.934 6.92829 51.8685 7.18411 51.8685 7.48651C51.8685 7.78014 51.9347 8.03191 52.0663 8.24184C52.226 8.49564 52.4484 8.62254 52.7355 8.62254C53.017 8.62254 53.2372 8.49361 53.3963 8.23509C53.5335 8.02111 53.601 7.76731 53.601 7.47369Z" fill="white"/>
<path d="M57.9359 9.06804H57.2737L57.2188 8.70151H57.1984C56.9718 8.99379 56.6488 9.14026 56.2294 9.14026C55.9162 9.14026 55.6629 9.04374 55.4722 8.85204C55.2991 8.67789 55.2125 8.46121 55.2125 8.20404C55.2125 7.81524 55.3814 7.51891 55.7213 7.31371C56.0605 7.10851 56.5376 7.00794 57.1519 7.01266V6.95326C57.1519 6.53409 56.9225 6.32484 56.463 6.32484C56.1358 6.32484 55.8473 6.40381 55.5982 6.56041L55.4483 6.09601C55.7565 5.91309 56.1372 5.82129 56.5862 5.82129C57.4531 5.82129 57.888 6.26004 57.888 7.13754V8.30934C57.888 8.62726 57.9042 8.88039 57.9359 9.06804ZM57.1702 7.97454V7.48381C56.3567 7.47031 55.95 7.68429 55.95 8.12506C55.95 8.29111 55.9964 8.41531 56.0914 8.49834C56.1864 8.58136 56.3075 8.62254 56.4517 8.62254C56.6136 8.62254 56.7649 8.57326 56.9028 8.47539C57.0414 8.37684 57.1266 8.25196 57.1583 8.09874C57.166 8.06431 57.1702 8.02246 57.1702 7.97454Z" fill="white"/>
<path d="M62.1264 9.06824H61.4719L61.4375 8.55727H61.417C61.208 8.94607 60.852 9.14047 60.3516 9.14047C59.9519 9.14047 59.6191 8.98994 59.3552 8.68889C59.0913 8.38784 58.9597 7.99702 58.9597 7.51709C58.9597 7.00207 59.1026 6.58492 59.3897 6.26632C59.6676 5.96932 60.0082 5.82082 60.4136 5.82082C60.859 5.82082 61.1707 5.96459 61.3481 6.25282H61.3622V4.42627H62.1003V8.21099C62.1003 8.52082 62.1088 8.80634 62.1264 9.06824ZM61.3622 7.72634V7.19579C61.3622 7.10399 61.3551 7.02974 61.3417 6.97304C61.3002 6.80294 61.2109 6.65984 61.075 6.54442C60.9378 6.42899 60.7725 6.37094 60.5817 6.37094C60.3066 6.37094 60.0913 6.47557 59.9329 6.68549C59.776 6.89542 59.6965 7.16339 59.6965 7.49077C59.6965 7.80532 59.7718 8.06047 59.9231 8.25689C60.0828 8.46614 60.2982 8.57077 60.5677 8.57077C60.8097 8.57077 61.0033 8.48369 61.1503 8.30887C61.2925 8.14754 61.3622 7.95314 61.3622 7.72634Z" fill="white"/>
<path d="M68.4337 7.45074C68.4337 7.94011 68.288 8.34106 67.9967 8.65561C67.6913 8.97894 67.2874 9.14026 66.7814 9.14026C66.2951 9.14026 65.9074 8.98569 65.6175 8.67519C65.329 8.36536 65.1847 7.97454 65.1847 7.50339C65.1847 7.01064 65.3332 6.60631 65.6315 6.29244C65.9299 5.97856 66.331 5.82129 66.837 5.82129C67.3232 5.82129 67.7152 5.97586 68.0108 6.28569C68.2922 6.58674 68.4337 6.97554 68.4337 7.45074ZM67.6695 7.47369C67.6695 7.18006 67.6033 6.92829 67.4717 6.71836C67.3162 6.46456 67.0967 6.33766 66.8095 6.33766C66.514 6.33766 66.2888 6.46456 66.1333 6.71836C66.001 6.92829 65.9355 7.18411 65.9355 7.48651C65.9355 7.78014 66.0017 8.03191 66.1333 8.24184C66.293 8.49564 66.5154 8.62254 66.8025 8.62254C67.084 8.62254 67.3057 8.49361 67.4647 8.23509C67.6005 8.02111 67.6695 7.76731 67.6695 7.47369Z" fill="white"/>
<path d="M72.3992 9.06811H71.6624V7.24561C71.6624 6.68401 71.44 6.40321 70.9932 6.40321C70.7743 6.40321 70.5977 6.48016 70.4612 6.63474C70.3247 6.78931 70.2564 6.97156 70.2564 7.18014V9.06744H69.5182V6.79539C69.5182 6.51594 69.5098 6.21286 69.4922 5.88481H70.1396L70.1741 6.38229H70.1945C70.281 6.22771 70.4091 6.10014 70.5766 5.99821C70.7771 5.87941 71.0002 5.81934 71.2458 5.81934C71.5547 5.81934 71.8123 5.91519 72.0171 6.10756C72.2725 6.34314 72.3992 6.69481 72.3992 7.16191V9.06811V9.06811Z" fill="white"/>
<path d="M77.3624 6.41607H76.5503V7.96183C76.5503 8.35468 76.6946 8.5511 76.9803 8.5511C77.1126 8.5511 77.2223 8.5403 77.3089 8.51803L77.3279 9.05465C77.1822 9.1073 76.9908 9.13363 76.7551 9.13363C76.4637 9.13363 76.2371 9.04858 76.0732 8.87848C75.9085 8.70838 75.8269 8.42218 75.8269 8.02055V6.41607H75.342V5.8862H75.8269V5.303L76.5496 5.09375V5.88553H77.3617V6.41607H77.3624Z" fill="white"/>
<path d="M81.2665 9.06824H80.5283V7.25924C80.5283 6.68887 80.3059 6.40334 79.8605 6.40334C79.5185 6.40334 79.2848 6.56872 79.1568 6.89947C79.1349 6.96899 79.1223 7.05404 79.1223 7.15394V9.06757H78.3855V4.42627H79.1223V6.34394H79.1364C79.3686 5.99497 79.7014 5.82082 80.1328 5.82082C80.4382 5.82082 80.6908 5.91667 80.8914 6.10904C81.1412 6.34867 81.2665 6.70507 81.2665 7.17622V9.06824V9.06824Z" fill="white"/>
<path d="M85.2937 7.32724C85.2937 7.45414 85.2839 7.56079 85.2663 7.64787H83.0545C83.0644 7.96242 83.1699 8.20204 83.3747 8.36809C83.5619 8.51659 83.8033 8.59084 84.0988 8.59084C84.426 8.59084 84.7244 8.54089 84.9932 8.44032L85.1086 8.93172C84.7941 9.06267 84.4239 9.12814 83.9954 9.12814C83.4817 9.12814 83.077 8.98302 82.7843 8.69277C82.4901 8.40252 82.3445 8.01304 82.3445 7.52434C82.3445 7.04442 82.4803 6.64482 82.754 6.32622C83.0397 5.98602 83.4261 5.81592 83.9137 5.81592C84.3909 5.81592 84.7533 5.98602 84.9981 6.32622C85.1959 6.59622 85.2937 6.93034 85.2937 7.32724ZM84.59 7.14432C84.5956 6.93439 84.5471 6.75349 84.4471 6.60094C84.3191 6.40452 84.1241 6.30597 83.8603 6.30597C83.6196 6.30597 83.4233 6.40182 83.2734 6.59419C83.1509 6.74742 83.0784 6.93034 83.0545 7.14432H84.59Z" fill="white"/>
</svg>
