<svg width="95" height="27" viewBox="0 0 95 27" fill="none" xmlns="http://www.w3.org/2000/svg">
<path d="M91.4815 27H3.51852C1.58421 27 0 25.4804 0 23.625V3.37493C0 1.51952 1.58421 -7.88839e-05 3.51852 -7.88839e-05H91.4815C93.4158 -7.88839e-05 95 1.51952 95 3.37493V23.625C95 25.4804 93.4158 27 91.4815 27Z" fill="black"/>
<path d="M91.4815 0.540765C93.1106 0.540765 94.4362 1.8123 94.4362 3.37493V23.625C94.4362 25.1876 93.1106 26.4592 91.4815 26.4592H3.51852C1.88944 26.4592 0.563842 25.1876 0.563842 23.625V3.37493C0.563842 1.8123 1.88944 0.540765 3.51852 0.540765H91.4815ZM91.4815 -7.88839e-05H3.51852C1.58421 -7.88839e-05 0 1.51952 0 3.37493V23.625C0 25.4804 1.58421 27 3.51852 27H91.4815C93.4158 27 95 25.4804 95 23.625V3.37493C95 1.51952 93.4158 -7.88839e-05 91.4815 -7.88839e-05Z" fill="#A6A6A6"/>
<path d="M33.3678 6.91445C33.3678 7.47808 33.1919 7.92949 32.8453 8.26614C32.4468 8.66524 31.9279 8.86605 31.2919 8.86605C30.6841 8.86605 30.1651 8.66186 29.7393 8.25939C29.3127 7.85102 29.0999 7.34983 29.0999 6.74992C29.0999 6.15001 29.3127 5.64882 29.7393 5.24382C30.1651 4.83798 30.6841 4.63379 31.2919 4.63379C31.5945 4.63379 31.883 4.6937 32.1583 4.80507C32.4328 4.91729 32.6562 5.06917 32.818 5.25648L32.4504 5.61254C32.168 5.29276 31.7836 5.13498 31.2919 5.13498C30.8486 5.13498 30.4642 5.28348 30.1378 5.58301C29.815 5.88339 29.6531 6.27236 29.6531 6.74992C29.6531 7.22748 29.815 7.61983 30.1378 7.9202C30.4642 8.21636 30.8486 8.36824 31.2919 8.36824C31.7625 8.36824 32.1583 8.21636 32.4706 7.91683C32.6764 7.71855 32.7934 7.44517 32.8242 7.09586H31.2919V6.60817H33.3361C33.3608 6.71364 33.3678 6.81573 33.3678 6.91445V6.91445Z" fill="white" stroke="white" stroke-width="0.16" stroke-miterlimit="10"/>
<path d="M36.6111 5.22304H34.6908V6.50555H36.4219V6.99324H34.6908V8.27574H36.6111V8.77271H34.1472V4.72607H36.6111V5.22304Z" fill="white" stroke="white" stroke-width="0.16" stroke-miterlimit="10"/>
<path d="M38.8999 8.77271H38.3563V5.22304H37.1785V4.72607H40.0786V5.22304H38.8999V8.77271V8.77271Z" fill="white" stroke="white" stroke-width="0.16" stroke-miterlimit="10"/>
<path d="M42.1775 8.77271V4.72607H42.7202V8.77271H42.1775Z" fill="white" stroke="white" stroke-width="0.16" stroke-miterlimit="10"/>
<path d="M45.126 8.77271H44.5868V5.22304H43.4045V4.72607H46.3082V5.22304H45.126V8.77271Z" fill="white" stroke="white" stroke-width="0.16" stroke-miterlimit="10"/>
<path d="M51.7988 8.25264C51.3827 8.66186 50.8672 8.86605 50.2524 8.86605C49.634 8.86605 49.1185 8.66186 48.7025 8.25264C48.2873 7.84427 48.0806 7.34308 48.0806 6.74992C48.0806 6.15676 48.2873 5.65557 48.7025 5.2472C49.1185 4.83798 49.634 4.63379 50.2524 4.63379C50.8637 4.63379 51.3792 4.83798 51.7952 5.25057C52.214 5.66232 52.4207 6.16014 52.4207 6.74992C52.4207 7.34308 52.2139 7.84427 51.7988 8.25264ZM49.1045 7.91345C49.4176 8.21636 49.7985 8.36824 50.2524 8.36824C50.7027 8.36824 51.0871 8.21636 51.3968 7.91345C51.709 7.61055 51.8674 7.22158 51.8674 6.74992C51.8674 6.27826 51.709 5.88929 51.3968 5.58639C51.0871 5.28348 50.7027 5.1316 50.2524 5.1316C49.7985 5.1316 49.4176 5.28348 49.1045 5.58639C48.7922 5.88929 48.6339 6.27826 48.6339 6.74992C48.6339 7.22158 48.7922 7.61055 49.1045 7.91345V7.91345Z" fill="white" stroke="white" stroke-width="0.16" stroke-miterlimit="10"/>
<path d="M53.1832 8.77271V4.72607H53.8429L55.8942 7.87327H55.918L55.8942 7.09533V4.72607H56.437V8.77271H55.8705L53.7224 5.47026H53.6987L53.7224 6.25158V8.77271H53.1832V8.77271Z" fill="white" stroke="white" stroke-width="0.16" stroke-miterlimit="10"/>
<path d="M47.9468 14.683C46.294 14.683 44.9438 15.8896 44.9438 17.5543C44.9438 19.2056 46.294 20.4248 47.9468 20.4248C49.6032 20.4248 50.9534 19.2056 50.9534 17.5543C50.9534 15.8896 49.6032 14.683 47.9468 14.683ZM47.9468 19.2942C47.04 19.2942 46.2597 18.5761 46.2597 17.5543C46.2597 16.519 47.04 15.8137 47.9468 15.8137C48.8537 15.8137 49.6375 16.519 49.6375 17.5543C49.6375 18.5761 48.8537 19.2942 47.9468 19.2942V19.2942ZM41.3945 14.683C39.7381 14.683 38.3914 15.8896 38.3914 17.5543C38.3914 19.2056 39.7381 20.4248 41.3945 20.4248C43.05 20.4248 44.3975 19.2056 44.3975 17.5543C44.3975 15.8896 43.05 14.683 41.3945 14.683ZM41.3945 19.2942C40.4867 19.2942 39.7038 18.5761 39.7038 17.5543C39.7038 16.519 40.4867 15.8137 41.3945 15.8137C42.3014 15.8137 43.0816 16.519 43.0816 17.5543C43.0816 18.5761 42.3014 19.2942 41.3945 19.2942ZM33.5975 15.5631V16.7831H36.6348C36.546 17.4649 36.3085 17.9661 35.9443 18.3154C35.501 18.7373 34.8105 19.2056 33.5975 19.2056C31.7282 19.2056 30.2645 17.7585 30.2645 15.9655C30.2645 14.1726 31.7282 12.7255 33.5975 12.7255C34.6082 12.7255 35.3435 13.1044 35.8863 13.5954L36.7826 12.7357C36.0235 12.0404 35.0137 11.5063 33.5975 11.5063C31.0342 11.5063 28.88 13.5069 28.88 15.9655C28.88 18.4242 31.0342 20.4248 33.5975 20.4248C34.9829 20.4248 36.0235 19.9894 36.8415 19.1726C37.6798 18.3686 37.9411 17.2379 37.9411 16.325C37.9411 16.0415 37.9164 15.7808 37.8725 15.5631H33.5975ZM65.4805 16.5089C65.2333 15.8668 64.4707 14.683 62.9173 14.683C61.3779 14.683 60.0963 15.8466 60.0963 17.5543C60.0963 19.1625 61.3647 20.4248 63.065 20.4248C64.4399 20.4248 65.2333 19.6207 65.5597 19.1524L64.5393 18.5002C64.1989 18.9777 63.7353 19.2942 63.065 19.2942C62.3992 19.2942 61.9215 19.0014 61.6154 18.4242L65.6186 16.8355L65.4805 16.5089V16.5089ZM61.399 17.4649C61.3647 16.3579 62.2954 15.7909 62.9621 15.7909C63.4846 15.7909 63.928 16.0415 64.0757 16.4001L61.399 17.4649V17.4649ZM58.1453 20.2501H59.4612V11.8126H58.1453V20.2501ZM55.9902 15.3226H55.9462C55.6506 14.9868 55.0868 14.683 54.3725 14.683C52.8737 14.683 51.5032 15.9453 51.5032 17.5636C51.5032 19.1726 52.8737 20.4248 54.3725 20.4248C55.0868 20.4248 55.6506 20.1185 55.9462 19.7726H55.9902V20.1843C55.9902 21.282 55.3788 21.8718 54.3928 21.8718C53.5888 21.8718 53.09 21.3149 52.8842 20.8467L51.7398 21.3048C52.0697 22.0659 52.9431 23.0024 54.3928 23.0024C55.9356 23.0024 57.2375 22.1317 57.2375 20.013V14.8577H55.9902V15.3226V15.3226ZM54.4851 19.2942C53.5782 19.2942 52.8191 18.566 52.8191 17.5636C52.8191 16.552 53.5782 15.8137 54.4851 15.8137C55.3788 15.8137 56.0834 16.552 56.0834 17.5636C56.0834 18.566 55.3788 19.2942 54.4851 19.2942V19.2942ZM71.6414 11.8126H68.4941V20.2501H69.8065V17.0531H71.6414C73.099 17.0531 74.5284 16.0415 74.5284 14.4324C74.5284 12.8243 73.0955 11.8126 71.6414 11.8126V11.8126ZM71.6757 15.8795H69.8065V12.9863H71.6757C72.6556 12.9863 73.2151 13.7667 73.2151 14.4324C73.2151 15.0855 72.6556 15.8795 71.6757 15.8795ZM79.7886 14.667C78.8403 14.667 77.8542 15.0686 77.4487 15.9588L78.6134 16.4271C78.8641 15.9588 79.325 15.8069 79.8123 15.8069C80.4931 15.8069 81.1836 16.1993 81.1942 16.892V16.9806C80.9567 16.849 80.4483 16.6541 79.8229 16.6541C78.5685 16.6541 77.2904 17.3164 77.2904 18.5525C77.2904 19.6831 78.3178 20.4113 79.4728 20.4113C80.3559 20.4113 80.8432 20.0291 81.1493 19.5844H81.1942V20.2366H82.4617V17C82.4617 15.504 81.2971 14.667 79.7886 14.667ZM79.6302 19.2908C79.201 19.2908 78.6028 19.0866 78.6028 18.5761C78.6028 17.9231 79.3487 17.6725 79.9944 17.6725C80.5723 17.6725 80.8432 17.7948 81.1942 17.956C81.0913 18.7373 80.3902 19.2908 79.6302 19.2908V19.2908ZM87.0798 14.8518L85.5712 18.5095H85.5264L83.9668 14.8518H82.5515L84.8948 19.9632L83.5578 22.8075H84.9291L88.54 14.8518H87.0798V14.8518ZM75.2497 20.2501H76.5656V11.8126H75.2497V20.2501Z" fill="white"/>
<path d="M7.34319 5.08926C7.13647 5.29682 7.01685 5.61998 7.01685 6.03848V20.9662C7.01685 21.3847 7.13647 21.7078 7.34319 21.9154L7.39421 21.9609L16.1149 13.5993V13.4019L7.39421 5.04032L7.34319 5.08926Z" fill="url(#paint0_linear_53509_41)"/>
<path d="M19.0184 16.3872L16.1147 13.5986V13.4012L19.0219 10.6126L19.087 10.6488L22.5299 12.5279C23.5124 13.0611 23.5124 13.9386 22.5299 14.4753L19.087 16.3509L19.0184 16.3872V16.3872Z" fill="url(#paint1_linear_53509_41)"/>
<path d="M19.0871 16.3504L16.1148 13.4994L7.34314 21.9141C7.66948 22.2432 8.20166 22.2828 8.80684 21.9538L19.0871 16.3504" fill="url(#paint2_linear_53509_41)"/>
<path d="M19.0871 10.649L8.80684 5.0456C8.20166 4.71991 7.66948 4.75957 7.34314 5.08863L16.1148 13.5L19.0871 10.649Z" fill="url(#paint3_linear_53509_41)"/>
<defs>
<linearGradient id="paint0_linear_53509_41" x1="15.3406" y1="21.1216" x2="4.02222" y2="9.32201" gradientUnits="userSpaceOnUse">
<stop stop-color="#00A0FF"/>
<stop offset="0.0066" stop-color="#00A1FF"/>
<stop offset="0.2601" stop-color="#00BEFF"/>
<stop offset="0.5122" stop-color="#00D2FF"/>
<stop offset="0.7604" stop-color="#00DFFF"/>
<stop offset="1" stop-color="#00E3FF"/>
</linearGradient>
<linearGradient id="paint1_linear_53509_41" x1="23.8093" y1="13.4989" x2="6.78188" y2="13.4989" gradientUnits="userSpaceOnUse">
<stop stop-color="#FFE000"/>
<stop offset="0.4087" stop-color="#FFBD00"/>
<stop offset="0.7754" stop-color="#FFA500"/>
<stop offset="1" stop-color="#FF9C00"/>
</linearGradient>
<linearGradient id="paint2_linear_53509_41" x1="17.4708" y1="11.9495" x2="2.12225" y2="-4.05172" gradientUnits="userSpaceOnUse">
<stop stop-color="#FF3A44"/>
<stop offset="1" stop-color="#C31162"/>
</linearGradient>
<linearGradient id="paint3_linear_53509_41" x1="5.13513" y1="26.8811" x2="11.989" y2="19.7359" gradientUnits="userSpaceOnUse">
<stop stop-color="#32A071"/>
<stop offset="0.0685" stop-color="#2DA771"/>
<stop offset="0.4762" stop-color="#15CF74"/>
<stop offset="0.8009" stop-color="#06E775"/>
<stop offset="1" stop-color="#00F076"/>
</linearGradient>
</defs>
</svg>
