<svg width="95" height="27" viewBox="0 0 95 27" fill="none" xmlns="http://www.w3.org/2000/svg">
<path d="M91.3557 27H3.51368C1.58204 27 0 25.4804 0 23.625V3.375C0 1.5196 1.58204 3.78902e-06 3.51368 3.78902e-06H91.3557C93.2874 3.78902e-06 94.8694 1.5196 94.8694 3.375V23.625C94.8694 25.4804 93.2874 27 91.3557 27Z" fill="black"/>
<path d="M91.4815 0.540844C93.1106 0.540844 94.4362 1.81238 94.4362 3.375V23.625C94.4362 25.1876 93.1106 26.4592 91.4815 26.4592H3.51852C1.88944 26.4592 0.563842 25.1876 0.563842 23.625V3.375C0.563842 1.81238 1.88944 0.540844 3.51852 0.540844H91.4815ZM91.4815 1.42693e-06H3.51852C1.58421 1.42693e-06 0 1.5196 0 3.375V23.625C0 25.4804 1.58421 27 3.51852 27H91.4815C93.4158 27 95 25.4804 95 23.625V3.375C95 1.5196 93.4158 1.42693e-06 91.4815 1.42693e-06Z" fill="#A6A6A6"/>
<path d="M13.4477 20.2603L6.79773 19.3153V13.7906H13.4477V20.2603ZM13.4477 13.2818H6.79773V8.04796L13.4477 7.10296V13.2818ZM22.5361 21.496L13.965 20.2603V13.7906H22.5361V21.496ZM22.5361 13.2818H13.965V7.10296L22.5361 5.86719V13.2818Z" fill="white"/>
<path d="M33.9888 10.0111C33.6932 10.1565 33.0282 10.3019 32.2893 10.3019C31.4766 10.3019 30.7377 10.0838 30.2205 9.57497C29.7771 9.13882 29.4816 8.4119 29.4816 7.53959C29.4816 5.94036 30.5899 4.70459 32.4371 4.70459C33.1021 4.70459 33.5455 4.84998 33.841 4.92267L33.6932 5.50421C33.3977 5.35882 33.0282 5.28613 32.511 5.28613C31.181 5.28613 30.2943 6.08574 30.2943 7.4669C30.2943 8.84805 31.1071 9.64767 32.4371 9.64767C32.8805 9.64767 33.2499 9.57497 33.3977 9.50228V7.90305H32.2893V7.32151H34.0627V10.0111H33.9888Z" fill="white"/>
<path d="M35.4666 8.41221C35.4666 9.35721 36.1316 9.79337 36.7966 9.79337C37.3139 9.79337 37.6094 9.72067 37.905 9.57529L38.0527 10.0841C37.8311 10.2295 37.3878 10.3022 36.7228 10.3022C35.5405 10.3022 34.8016 9.5026 34.8016 8.33952C34.8016 7.17644 35.4666 6.23145 36.6489 6.23145C37.905 6.23145 38.2744 7.32183 38.2744 8.04875C38.2744 8.19414 38.2744 8.33952 38.2744 8.41221H35.4666V8.41221ZM37.6094 7.90337C37.6094 7.46721 37.3877 6.74029 36.6489 6.74029C35.91 6.74029 35.6144 7.39452 35.5405 7.90337H37.6094Z" fill="white"/>
<path d="M40.0478 5.21338V6.30376H41.0822V6.81261H40.0478V8.92069C40.0478 9.42953 40.1956 9.64761 40.565 9.64761C40.7867 9.64761 40.8605 9.64761 41.0083 9.57492V10.0838C40.8605 10.1565 40.6389 10.1565 40.3433 10.1565C39.9739 10.1565 39.7522 10.0838 39.6044 9.86569C39.3828 9.64761 39.3089 9.28415 39.3089 8.84799V6.73992H38.7178V6.23107H39.3089V5.28607L40.0478 5.21338Z" fill="white"/>
<path d="M44.4072 5.2135C44.4072 5.43157 44.2594 5.64965 43.9638 5.64965C43.7422 5.64965 43.5205 5.43157 43.5205 5.2135C43.5205 4.99542 43.7422 4.77734 43.9638 4.77734C44.1855 4.77734 44.4072 4.99542 44.4072 5.2135ZM43.5944 10.2293V6.30388H44.3333V10.2293H43.5944Z" fill="white"/>
<path d="M46.3283 5.21338V6.30376H47.3627V6.81261H46.3283V8.92069C46.3283 9.42953 46.4761 9.64761 46.8455 9.64761C47.0672 9.64761 47.1411 9.64761 47.2888 9.57492V10.0838C47.1411 10.1565 46.9194 10.1565 46.6238 10.1565C46.2544 10.1565 46.0327 10.0838 45.8849 9.86569C45.6633 9.64761 45.5894 9.28415 45.5894 8.84799V6.73992H44.9983V6.23107H45.5894V5.28607L46.3283 5.21338Z" fill="white"/>
<path d="M53.4216 8.26683C53.4216 9.72067 52.3872 10.3749 51.4266 10.3749C50.3922 10.3749 49.5055 9.57529 49.5055 8.33952C49.5055 7.03106 50.3922 6.23145 51.4266 6.23145C52.6827 6.23145 53.4216 7.03106 53.4216 8.26683ZM50.3183 8.26683C50.3183 9.13914 50.8355 9.79337 51.5005 9.79337C52.1655 9.79337 52.6827 9.13914 52.6827 8.26683C52.6827 7.6126 52.3133 6.74029 51.5005 6.74029C50.6877 6.74029 50.3183 7.53991 50.3183 8.26683Z" fill="white"/>
<path d="M54.3082 7.39452C54.3082 6.95837 54.3082 6.6676 54.3082 6.30414H54.9732L55.0471 6.95837C55.2688 6.59491 55.7121 6.23145 56.3771 6.23145C56.8944 6.23145 57.781 6.52221 57.781 7.90337V10.2295H57.0421V7.97606C57.0421 7.32183 56.8204 6.81298 56.1554 6.81298C55.7121 6.81298 55.3427 7.17644 55.1949 7.53991C55.1949 7.6126 55.121 7.75798 55.121 7.90337V10.2295H54.3821V7.39452H54.3082Z" fill="white"/>
<path d="M31.4027 22.0049L29.4077 14.0815H30.516L31.4766 18.0796C31.6983 19.0972 31.9199 20.0422 32.0677 20.8419C32.2155 20.0422 32.4372 19.0972 32.7327 18.0796L33.7672 14.0815H34.8755L35.836 18.0796C36.0577 19.0246 36.2794 19.9696 36.4272 20.7692C36.5749 19.8969 36.7966 19.0246 37.0922 18.0069L38.1266 14.0088H39.161L36.8705 21.9322H35.7622L34.7277 17.7888C34.506 16.7711 34.2844 15.9715 34.2105 15.1719C34.0627 15.9715 33.9149 16.6984 33.6194 17.7888L32.511 21.9322H31.4027V22.0049Z" fill="white"/>
<path d="M41.0083 14.663C41.0083 15.0265 40.7867 15.3172 40.3433 15.3172C39.9739 15.3172 39.6783 15.0265 39.6783 14.663C39.6783 14.2996 39.9739 14.0088 40.3433 14.0088C40.7867 14.0815 41.0083 14.2996 41.0083 14.663ZM39.8261 22.0049V16.3349H40.8606V22.0049H39.8261Z" fill="white"/>
<path d="M42.1905 17.8619C42.1905 17.2803 42.1905 16.7715 42.1166 16.3353H43.0771L43.151 17.2803C43.4466 16.7715 44.1116 16.1899 45.0721 16.1899C45.8849 16.1899 47.0671 16.6261 47.0671 18.5888V22.0053H46.0327V18.7342C46.0327 17.7892 45.6632 17.0622 44.7027 17.0622C44.0377 17.0622 43.4466 17.5711 43.2988 18.1526C43.2249 18.298 43.2249 18.4434 43.2249 18.6615V22.078H42.1905V17.8619V17.8619Z" fill="white"/>
<path d="M53.6432 13.6459V20.5517C53.6432 21.0606 53.6432 21.6421 53.7171 22.0055H52.7566L52.6827 20.9879C52.3871 21.6421 51.6482 22.0782 50.7616 22.0782C49.3577 22.0782 48.3232 20.9152 48.3232 19.1705C48.3232 17.2805 49.5055 16.1175 50.9094 16.1175C51.796 16.1175 52.3871 16.5536 52.6088 16.9898V13.5732H53.6432V13.6459ZM52.6088 18.589C52.6088 18.4436 52.6088 18.2982 52.5349 18.1529C52.3871 17.4986 51.796 16.9898 51.0571 16.9898C49.9488 16.9898 49.3577 17.9348 49.3577 19.1705C49.3577 20.3336 49.9488 21.2786 51.0571 21.2786C51.7221 21.2786 52.3871 20.8425 52.6088 20.0429C52.6088 19.8975 52.6827 19.7521 52.6827 19.6067V18.589H52.6088Z" fill="white"/>
<path d="M60.2194 19.0976C60.2194 21.2057 58.7416 22.1507 57.3378 22.1507C55.7861 22.1507 54.6039 20.9876 54.6039 19.243C54.6039 17.353 55.86 16.1899 57.4855 16.1899C59.1111 16.1899 60.2194 17.353 60.2194 19.0976ZM55.7122 19.1703C55.7122 20.4061 56.4511 21.3511 57.4855 21.3511C58.4461 21.3511 59.2589 20.4061 59.2589 19.1703C59.2589 18.2253 58.7417 16.9896 57.5594 16.9896C56.2294 16.9169 55.7122 18.0799 55.7122 19.1703Z" fill="white"/>
<path d="M61.5495 16.2622L62.2883 19.1699C62.4361 19.8241 62.5839 20.4057 62.7317 20.9872C62.8795 20.4057 63.0272 19.8241 63.2489 19.1699L64.2095 16.2622H65.0961L65.9828 19.0972C66.2045 19.7514 66.3522 20.4057 66.5 20.9872C66.5739 20.4057 66.7217 19.8241 66.9433 19.1699L67.7561 16.3349H68.7906L66.9433 22.0049H65.9828L65.0961 19.3153C64.8744 18.6611 64.7267 18.1522 64.5789 17.4253C64.4311 18.0795 64.2833 18.6611 64.0617 19.3153L63.1011 22.0049H62.2145L60.515 16.3349H61.5495V16.2622Z" fill="white"/>
<path d="M69.6033 20.9149C69.8988 21.133 70.49 21.3511 71.0072 21.3511C71.7461 21.3511 72.1155 20.9876 72.1155 20.4788C72.1155 19.9699 71.82 19.6792 71.0811 19.4611C70.0466 19.0976 69.5294 18.5161 69.5294 17.8619C69.5294 16.9169 70.2683 16.1899 71.5244 16.1899C72.1155 16.1899 72.6327 16.3353 72.9283 16.5534L72.6327 17.2803C72.4111 17.1349 71.9677 16.9169 71.4505 16.9169C70.8594 16.9169 70.49 17.2803 70.49 17.7165C70.49 18.1526 70.8594 18.3707 71.5983 18.6615C72.5589 19.0249 73.0761 19.5338 73.0761 20.4061C73.0761 21.4238 72.2633 22.078 70.9333 22.078C70.2683 22.078 69.7511 21.9326 69.3077 21.7146L69.6033 20.9149Z" fill="white"/>
<path d="M77.9528 15.3176L76.6228 16.0445L76.4011 15.2449L78.1006 14.3726H78.9872V22.0052H77.9528V15.3176Z" fill="white"/>
<path d="M86.2283 18.0797C86.2283 20.6966 85.2677 22.0778 83.5683 22.0778C82.0905 22.0778 81.0561 20.6966 80.9822 18.1524C80.9822 15.6081 82.0905 14.1543 83.6422 14.1543C85.3416 14.227 86.2283 15.6808 86.2283 18.0797ZM82.0166 18.2251C82.0166 20.1878 82.6077 21.3508 83.5683 21.3508C84.6027 21.3508 85.12 20.1151 85.12 18.1524C85.12 16.2624 84.6027 15.0266 83.5683 15.0266C82.6816 15.0266 82.0166 16.117 82.0166 18.2251Z" fill="white"/>
</svg>
